<svg id="_2-squares" data-name="2-squares" xmlns="http://www.w3.org/2000/svg" viewBox="0 0 20.192 12.801">
  <defs>
    <style>
      .cls-1 {
        fill: #b8b8b8;
      }
    </style>
  </defs>
  <path id="Path_36" data-name="Path 36" class="cls-1" d="M19.464,86.986H7.221a.729.729,0,0,0-.728.728v3.191H.728A.729.729,0,0,0,0,91.634v7.425a.729.729,0,0,0,.728.728H12.971a.729.729,0,0,0,.728-.728V95.868h5.765a.729.729,0,0,0,.728-.728V87.714A.729.729,0,0,0,19.464,86.986ZM12.985,99.059a.014.014,0,0,1-.014.014L.714,99.059.728,91.62l12.257.014Zm6.492-3.919a.014.014,0,0,1-.014.014L13.7,95.147V91.634a.729.729,0,0,0-.728-.728H7.215L7.221,87.7l12.257.014V95.14Z" transform="translate(0 -86.986)"/>
</svg>
