<svg id="avatar" xmlns="http://www.w3.org/2000/svg" viewBox="0 0 14.035 16.501">
  <defs>
    <style>
      .cls-1 {
        fill: #b8b8b8;
      }
    </style>
  </defs>
  <g id="Group_5287" data-name="Group 5287" transform="translate(0)">
    <path id="Path_39" data-name="Path 39" class="cls-1" d="M140.588,8.891h.109a3.153,3.153,0,0,0,2.409-1.042c1.316-1.483,1.1-4.025,1.073-4.268a3.486,3.486,0,0,0-1.657-3.1A3.8,3.8,0,0,0,140.684,0h-.058a3.8,3.8,0,0,0-1.838.468,3.488,3.488,0,0,0-1.678,3.113c-.024.243-.243,2.785,1.073,4.268A3.14,3.14,0,0,0,140.588,8.891Zm-2.566-5.225c0-.01,0-.021,0-.027.113-2.45,1.852-2.713,2.6-2.713h.041a2.5,2.5,0,0,1,2.6,2.713.067.067,0,0,0,0,.027c0,.024.243,2.347-.844,3.571a2.24,2.24,0,0,1-1.76.731h-.034a2.232,2.232,0,0,1-1.756-.731C137.786,6.021,138.018,3.687,138.022,3.666Z" transform="translate(-133.63)"/>
    <path id="Path_40" data-name="Path 40" class="cls-1" d="M50.107,263.493v-.01c0-.027,0-.055,0-.085-.021-.677-.065-2.259-1.548-2.764l-.034-.01a9.861,9.861,0,0,1-2.836-1.292.461.461,0,1,0-.53.755,10.642,10.642,0,0,0,3.12,1.425c.8.284.885,1.134.909,1.913a.687.687,0,0,0,0,.085,6.2,6.2,0,0,1-.072,1.056,12.575,12.575,0,0,1-6.024,1.4,12.648,12.648,0,0,1-6.028-1.4,5.871,5.871,0,0,1-.072-1.056c0-.027,0-.055,0-.085.024-.779.113-1.63.909-1.913a10.742,10.742,0,0,0,3.12-1.425.461.461,0,1,0-.53-.755,9.751,9.751,0,0,1-2.836,1.292l-.034.01c-1.483.509-1.527,2.091-1.548,2.764a.686.686,0,0,1,0,.085v.01a5.239,5.239,0,0,0,.174,1.548.438.438,0,0,0,.178.215,12.925,12.925,0,0,0,6.67,1.633,12.964,12.964,0,0,0,6.67-1.633.457.457,0,0,0,.178-.215A5.5,5.5,0,0,0,50.107,263.493Z" transform="translate(-36.073 -250.386)"/>
  </g>
</svg>
