<svg id="clapperboard" xmlns="http://www.w3.org/2000/svg" viewBox="0 0 16.501 16.501">
  <defs>
    <style>
      .cls-1 {
        fill: #cb0a1d;
      }
    </style>
  </defs>
  <g id="Group_5257" data-name="Group 5257" transform="translate(0.669 6.184)">
    <g id="Group_5256" data-name="Group 5256">
      <path id="Path_20" data-name="Path 20" class="cls-1" d="M36.426,191.81H21.283a.344.344,0,0,0-.344.344v8.253a1.722,1.722,0,0,0,1.721,1.719H35.049a1.722,1.722,0,0,0,1.721-1.719v-8.253A.344.344,0,0,0,36.426,191.81Zm-.344,8.6a1.033,1.033,0,0,1-1.032,1.032H22.66a1.033,1.033,0,0,1-1.032-1.032V192.5H36.082Z" transform="translate(-20.939 -191.81)"/>
    </g>
  </g>
  <g id="Group_5259" data-name="Group 5259" transform="translate(0 0)">
    <g id="Group_5258" data-name="Group 5258" transform="translate(0)">
      <path id="Path_21" data-name="Path 21" class="cls-1" d="M16.684,3,16.1.781A1.04,1.04,0,0,0,14.864.026L1,3.313A1.031,1.031,0,0,0,.226,4.57L.875,7.131a.344.344,0,0,0,.667-.168L1.5,6.813,16.427,3.425A.345.345,0,0,0,16.684,3ZM1.335,6.146.893,4.4a.344.344,0,0,1,.26-.42L15.02.7A.311.311,0,0,1,15.1.687a.348.348,0,0,1,.336.265l.5,1.881Z" transform="translate(-0.194 0)"/>
    </g>
  </g>
  <g id="Group_5261" data-name="Group 5261" transform="translate(2.045 6.184)">
    <g id="Group_5260" data-name="Group 5260">
      <path id="Path_22" data-name="Path 22" class="cls-1" d="M65.468,191.851a.347.347,0,0,0-.463.154l-1.377,2.751a.345.345,0,0,0,.617.307l1.377-2.751A.344.344,0,0,0,65.468,191.851Z" transform="translate(-63.593 -191.816)"/>
    </g>
  </g>
  <g id="Group_5263" data-name="Group 5263" transform="translate(5.487 6.184)">
    <g id="Group_5262" data-name="Group 5262">
      <path id="Path_23" data-name="Path 23" class="cls-1" d="M172.134,191.851a.346.346,0,0,0-.462.154l-1.377,2.751a.344.344,0,0,0,.616.307l1.377-2.751A.344.344,0,0,0,172.134,191.851Z" transform="translate(-170.26 -191.816)"/>
    </g>
  </g>
  <g id="Group_5265" data-name="Group 5265" transform="translate(8.929 6.184)">
    <g id="Group_5264" data-name="Group 5264">
      <path id="Path_24" data-name="Path 24" class="cls-1" d="M278.8,191.851a.347.347,0,0,0-.462.154l-1.377,2.751a.344.344,0,0,0,.616.307l1.377-2.751A.344.344,0,0,0,278.8,191.851Z" transform="translate(-276.926 -191.816)"/>
    </g>
  </g>
  <g id="Group_5267" data-name="Group 5267" transform="translate(12.37 6.184)">
    <g id="Group_5266" data-name="Group 5266">
      <path id="Path_25" data-name="Path 25" class="cls-1" d="M385.467,191.851a.346.346,0,0,0-.462.154l-1.377,2.751a.344.344,0,0,0,.616.307l1.377-2.751A.344.344,0,0,0,385.467,191.851Z" transform="translate(-383.593 -191.816)"/>
    </g>
  </g>
  <g id="Group_5269" data-name="Group 5269" transform="translate(0.669 8.935)">
    <g id="Group_5268" data-name="Group 5268">
      <path id="Path_26" data-name="Path 26" class="cls-1" d="M36.426,277.143H21.283a.344.344,0,1,0,0,.688H36.426a.344.344,0,1,0,0-.688Z" transform="translate(-20.939 -277.143)"/>
    </g>
  </g>
  <g id="Group_5271" data-name="Group 5271" transform="translate(1.384 3.114)">
    <g id="Group_5270" data-name="Group 5270">
      <path id="Path_27" data-name="Path 27" class="cls-1" d="M46.036,99.063l-2.371-2.369a.344.344,0,0,0-.487.486l2.371,2.369a.346.346,0,0,0,.244.1.344.344,0,0,0,.243-.587Z" transform="translate(-43.078 -96.594)"/>
    </g>
  </g>
  <g id="Group_5273" data-name="Group 5273" transform="translate(4.749 2.35)">
    <g id="Group_5272" data-name="Group 5272">
      <path id="Path_28" data-name="Path 28" class="cls-1" d="M150.337,75.361l-2.373-2.369a.344.344,0,0,0-.487.486l2.372,2.369a.344.344,0,1,0,.487-.486Z" transform="translate(-147.377 -72.892)"/>
    </g>
  </g>
  <g id="Group_5275" data-name="Group 5275" transform="translate(8.117 1.585)">
    <g id="Group_5274" data-name="Group 5274">
      <path id="Path_29" data-name="Path 29" class="cls-1" d="M254.738,51.64l-2.368-2.369a.344.344,0,0,0-.487.486l2.368,2.369a.346.346,0,0,0,.244.1.34.34,0,0,0,.243-.1A.344.344,0,0,0,254.738,51.64Z" transform="translate(-251.782 -49.17)"/>
    </g>
  </g>
  <g id="Group_5277" data-name="Group 5277" transform="translate(11.48 0.822)">
    <g id="Group_5276" data-name="Group 5276">
      <path id="Path_30" data-name="Path 30" class="cls-1" d="M358.951,27.96l-2.369-2.369a.344.344,0,1,0-.487.486l2.369,2.369a.344.344,0,0,0,.487-.486Z" transform="translate(-355.995 -25.49)"/>
    </g>
  </g>
</svg>
