<svg xmlns="http://www.w3.org/2000/svg" viewBox="0 0 17.502 17.501">
  <defs>
    <style>
      .cls-1 {
        fill: none;
        stroke: #b8b8b8;
      }

      .cls-2 {
        fill: #b8b8b8;
      }
    </style>
  </defs>
  <g id="new" transform="translate(0.5 0.5)">
    <path id="Path_41" data-name="Path 41" class="cls-1" d="M15.563,7.051c-.254-.187-.574-.421-.613-.574a1.921,1.921,0,0,1,.247-.842c.224-.514.455-1.046.2-1.489s-.841-.514-1.4-.574a1.911,1.911,0,0,1-.839-.2,1.91,1.91,0,0,1-.2-.842c-.063-.562-.128-1.143-.574-1.4s-.979-.032-1.492.194a1.926,1.926,0,0,1-.842.247c-.155-.042-.388-.359-.574-.613C9.147.518,8.78.02,8.25.02s-.9.5-1.22.937c-.188.255-.421.574-.574.613a1.968,1.968,0,0,1-.842-.247C5.1,1.1,4.566.869,4.125,1.125s-.515.841-.578,1.406a1.92,1.92,0,0,1-.2.839,1.917,1.917,0,0,1-.836.2c-.562.063-1.144.128-1.4.574s-.032.978.2,1.492a1.92,1.92,0,0,1,.247.844c-.042.155-.359.389-.613.574C.5,7.374,0,7.741,0,8.271s.5.9.938,1.22c.254.187.574.421.613.574a1.921,1.921,0,0,1-.247.842c-.224.514-.455,1.046-.2,1.489s.841.514,1.4.574a1.911,1.911,0,0,1,.839.2,1.91,1.91,0,0,1,.2.842c.063.562.128,1.143.574,1.4s.974.026,1.489-.2a1.97,1.97,0,0,1,.848-.244c.155.042.388.359.574.613.324.439.69.937,1.22.937s.9-.5,1.22-.937c.188-.255.421-.574.574-.613a1.937,1.937,0,0,1,.842.247c.514.224,1.046.453,1.488.2s.515-.841.578-1.4a1.92,1.92,0,0,1,.2-.839,1.917,1.917,0,0,1,.838-.2c.562-.063,1.144-.128,1.4-.574s.025-.974-.2-1.489a1.92,1.92,0,0,1-.244-.848c.042-.155.359-.389.613-.574.439-.324.938-.691.938-1.22S16,7.374,15.563,7.051Z" transform="translate(0 -0.02)"/>
    <g id="Group_5288" data-name="Group 5288" transform="translate(3.587 6.457)">
      <path id="Path_42" data-name="Path 42" class="cls-2" d="M109.177,195.608a.359.359,0,0,1-.287-.143l-1.507-2.009v1.794a.359.359,0,0,1-.717,0v-2.87a.359.359,0,0,1,.646-.215l1.507,2.009V192.38a.359.359,0,1,1,.717,0v2.87a.359.359,0,0,1-.245.34A.353.353,0,0,1,109.177,195.608Z" transform="translate(-106.666 -192.021)"/>
      <path id="Path_43" data-name="Path 43" class="cls-2" d="M215.127,195.608h-1.435a.359.359,0,0,1-.359-.359v-2.87a.359.359,0,0,1,.359-.359h1.435a.359.359,0,0,1,0,.717H214.05v2.152h1.076a.359.359,0,1,1,0,.717Z" transform="translate(-209.746 -192.021)"/>
      <path id="Path_44" data-name="Path 44" class="cls-2" d="M215.127,235.4h-1.435a.359.359,0,1,1,0-.717h1.435a.359.359,0,1,1,0,.717Z" transform="translate(-209.746 -233.252)"/>
      <path id="Path_45" data-name="Path 45" class="cls-2" d="M301.178,195.6a.359.359,0,0,1-.341-.245l-.377-1.131-.377,1.131a.343.343,0,0,1-.354.245.359.359,0,0,1-.334-.271l-.717-2.87a.359.359,0,0,1,.7-.174l.418,1.674.328-.984a.374.374,0,0,1,.681,0l.328.984.418-1.674a.359.359,0,0,1,.7.174l-.717,2.87a.359.359,0,0,1-.334.271Z" transform="translate(-292.211 -192.012)"/>
    </g>
  </g>
</svg>
