<svg id="stopwatch" xmlns="http://www.w3.org/2000/svg" viewBox="0 0 16.501 16.5">
  <defs>
    <style>
      .cls-1 {
        fill: #b8b8b8;
      }
      .cls-2 {
        fill: #cb0a1d;;
      }      
    </style>
  </defs>
  <path id="Path_37" data-name="Path 37" class="cls-1" d="M8.25,0a.275.275,0,0,0-.275.275V3.93a.275.275,0,0,0,.55,0V.555A7.7,7.7,0,1,1,2.8,2.815a.275.275,0,1,0-.389-.388A8.25,8.25,0,1,0,8.25,0Z"/>
  <path id="Path_38" data-name="Path 38" class="cls-1" d="M21.627,23a.978.978,0,0,0,.716.4c.026,0,.051,0,.076,0A.98.98,0,0,0,23,21.628l-3.56-2.575a.275.275,0,0,0-.384.384Zm1.045-.924a.43.43,0,1,1-.6.6L20.5,20.5Z" transform="translate(-13.775 -13.776)"/>
</svg>
