<svg id="television" xmlns="http://www.w3.org/2000/svg" viewBox="0 0 20.23 16.501">
  <defs>
    <style>
      .cls-1 {
        fill: #b8b8b8;
      }
    </style>
  </defs>
  <g id="Group_5279" data-name="Group 5279" transform="translate(1.301 5.019)">
    <g id="Group_5278" data-name="Group 5278">
      <path id="Path_31" data-name="Path 31" class="cls-1" d="M37.235,129.543H25.755a1.275,1.275,0,0,0-1.275,1.275v7.653a1.275,1.275,0,0,0,1.275,1.275H37.235a1.275,1.275,0,0,0,1.275-1.275v-7.653A1.275,1.275,0,0,0,37.235,129.543Zm.655,8.928a.657.657,0,0,1-.655.655H25.755a.657.657,0,0,1-.655-.655v-7.653a.657.657,0,0,1,.655-.655H37.235a.657.657,0,0,1,.655.655Z" transform="translate(-24.48 -129.543)"/>
    </g>
  </g>
  <g id="Group_5281" data-name="Group 5281" transform="translate(0 0)">
    <g id="Group_5280" data-name="Group 5280">
      <path id="Path_32" data-name="Path 32" class="cls-1" d="M18.7,38.828H10.369l2.211-3.25a.307.307,0,1,0-.508-.346l-2.34,3.439L7.283,36.464a.308.308,0,0,0-.41.457L9,38.834H1.528A1.533,1.533,0,0,0,0,40.363v9.706A1.533,1.533,0,0,0,1.528,51.6H18.7a1.533,1.533,0,0,0,1.528-1.528V40.356A1.533,1.533,0,0,0,18.7,38.828Zm.912,11.241a.916.916,0,0,1-.914.914H1.528a.916.916,0,0,1-.914-.914V40.356a.916.916,0,0,1,.914-.914H18.7a.916.916,0,0,1,.914.914Z" transform="translate(0 -35.097)"/>
    </g>
  </g>
  <g id="Group_5283" data-name="Group 5283" transform="translate(16.174 5.866)">
    <g id="Group_5282" data-name="Group 5282">
      <path id="Path_33" data-name="Path 33" class="cls-1" d="M306.453,145.857l-.017-.017a1.229,1.229,0,0,0-1.738,0h0a1.229,1.229,0,0,0,0,1.738h0a1.231,1.231,0,0,0,1.756-1.722Zm-.442,1.288a.593.593,0,1,1,0-.869l.013.013a.616.616,0,0,1-.013.85Z" transform="translate(-304.337 -145.48)"/>
    </g>
  </g>
  <g id="Group_5285" data-name="Group 5285" transform="translate(16.481 9.058)">
    <g id="Group_5284" data-name="Group 5284">
      <path id="Path_34" data-name="Path 34" class="cls-1" d="M311.7,205.813a.923.923,0,1,0,.27.652A.92.92,0,0,0,311.7,205.813Zm-.436.869,0,0a.308.308,0,1,1,.089-.213A.308.308,0,0,1,311.264,206.685Z" transform="translate(-310.129 -205.543)"/>
    </g>
  </g>
</svg>
