<svg xmlns="http://www.w3.org/2000/svg" viewBox="0 0 22 18.345">
  <defs>
    <style>
      .cls-1 {
        fill: #b8b8b8;
      }
    </style>
  </defs>
  <g id="theatre" transform="translate(0 -67.931)">
    <g id="Group_5290" data-name="Group 5290" transform="translate(14.23 74.415)">
      <g id="Group_5289" data-name="Group 5289">
        <path id="Path_46" data-name="Path 46" class="cls-1" d="M333.084,201.478a.4.4,0,0,0-.042-.516.3.3,0,0,0-.455.048l-1.263,1.728a.9.9,0,0,0-.139.743.781.781,0,0,0,.46.551l.836.324a.288.288,0,0,0,.1.02.329.329,0,0,0,.305-.248.38.38,0,0,0-.2-.465l-.836-.324a.078.078,0,0,1-.047-.056.089.089,0,0,1,.014-.076Z" transform="translate(-331.158 -200.877)"/>
      </g>
    </g>
    <g id="Group_5292" data-name="Group 5292" transform="translate(12.099 72.083)">
      <g id="Group_5291" data-name="Group 5291">
        <path id="Path_47" data-name="Path 47" class="cls-1" d="M284.631,153.9c-.177-.409-.616-.885-1.706-.827a4.739,4.739,0,0,0-1.124.21.376.376,0,0,0-.218.455.319.319,0,0,0,.4.247,4.175,4.175,0,0,1,.971-.181,1.191,1.191,0,0,1,1.043.322.408.408,0,0,0,.032.224.32.32,0,0,0,.287.2.291.291,0,0,0,.148-.041A.483.483,0,0,0,284.631,153.9Z" transform="translate(-281.569 -153.063)"/>
      </g>
    </g>
    <g id="Group_5294" data-name="Group 5294" transform="translate(17.102 73.627)">
      <g id="Group_5293" data-name="Group 5293">
        <path id="Path_48" data-name="Path 48" class="cls-1" d="M400.811,186.321a5.822,5.822,0,0,0-.776-.947c-.83-.8-1.435-.732-1.8-.531a.479.479,0,0,0-.2.6.308.308,0,0,0,.429.178.342.342,0,0,0,.146-.155c.582-.167,1.411.883,1.67,1.288a.312.312,0,0,0,.262.152.3.3,0,0,0,.189-.069A.4.4,0,0,0,400.811,186.321Z" transform="translate(-398.007 -184.711)"/>
      </g>
    </g>
    <g id="Group_5296" data-name="Group 5296" transform="translate(5.744 76.156)">
      <g id="Group_5295" data-name="Group 5295">
        <path id="Path_49" data-name="Path 49" class="cls-1" d="M135.67,239.25a.318.318,0,0,0-.4-.246l-.846.288a.065.065,0,0,1-.067-.015.085.085,0,0,1-.027-.071l.142-2.24a.354.354,0,0,0-.3-.392.339.339,0,0,0-.345.339l-.142,2.24a.868.868,0,0,0,.268.7.668.668,0,0,0,.45.179.64.64,0,0,0,.207-.034l.846-.288A.377.377,0,0,0,135.67,239.25Z" transform="translate(-133.682 -236.574)"/>
      </g>
    </g>
    <g id="Group_5298" data-name="Group 5298" transform="translate(1.881 75.812)">
      <g id="Group_5297" data-name="Group 5297">
        <path id="Path_50" data-name="Path 50" class="cls-1" d="M46.786,229.865a.416.416,0,0,0-.247-.254c-1.223-.43-2.586.751-2.644.8a.4.4,0,0,0-.058.513.3.3,0,0,0,.453.066,3.928,3.928,0,0,1,.72-.475,2.132,2.132,0,0,1,1.034-.265l-.149.331a.391.391,0,0,0,.14.493.291.291,0,0,0,.147.04.321.321,0,0,0,.288-.2l.3-.675A.5.5,0,0,0,46.786,229.865Z" transform="translate(-43.771 -229.517)"/>
      </g>
    </g>
    <g id="Group_5300" data-name="Group 5300" transform="translate(6.953 74.1)">
      <g id="Group_5299" data-name="Group 5299">
        <path id="Path_51" data-name="Path 51" class="cls-1" d="M164.491,194.418a3.129,3.129,0,0,0-2.6.983.491.491,0,0,0-.083.366.447.447,0,0,0,.193.307l.581.373a.292.292,0,0,0,.159.048.318.318,0,0,0,.281-.186.394.394,0,0,0-.122-.5l-.286-.184a2.9,2.9,0,0,1,1.824-.477.339.339,0,0,0,.346-.338A.355.355,0,0,0,164.491,194.418Z" transform="translate(-161.806 -194.41)"/>
      </g>
    </g>
    <g id="Group_5302" data-name="Group 5302" transform="translate(0 69.809)">
      <g id="Group_5301" data-name="Group 5301" transform="translate(0)">
        <path id="Path_52" data-name="Path 52" class="cls-1" d="M16.213,116.309a2.623,2.623,0,0,0-1.441-1.44,2.223,2.223,0,0,0-1.916.138,2.565,2.565,0,0,0-.766.657l.024-.124a5.464,5.464,0,0,0-.558-3.834,4.469,4.469,0,0,1-.524-1.5l-.16-.992a3.12,3.12,0,0,0-2.911-2.774,10.749,10.749,0,0,0-6.64,2.262,3.657,3.657,0,0,0-1.084,4.134l.347.929a4.613,4.613,0,0,1,.291,1.58,5.219,5.219,0,0,0,1.394,3.549l2.721,3.012a2.922,2.922,0,0,0,2.167,1,2.759,2.759,0,0,0,.891-.149l1.116-.38a3.384,3.384,0,0,0,2.139-2.622l.508-2.641a.285.285,0,0,0,.156,0,3.489,3.489,0,0,1,3.689,1.323l.131.168a.308.308,0,0,0,.242.124.287.287,0,0,0,.063-.007.339.339,0,0,0,.242-.241A3.179,3.179,0,0,0,16.213,116.309Zm-4.726-.942,0,.011-.812,4.221a2.68,2.68,0,0,1-1.694,2.076l-1.116.38a2.256,2.256,0,0,1-2.421-.674l-2.725-3.016-.007-.008a4.435,4.435,0,0,1-1.188-3.02,5.427,5.427,0,0,0-.342-1.859l-.347-.929a2.866,2.866,0,0,1,.849-3.239,10.163,10.163,0,0,1,6.19-2.138h.086a2.445,2.445,0,0,1,2.28,2.173l.16.992a5.259,5.259,0,0,0,.616,1.766A4.643,4.643,0,0,1,11.487,115.367Zm1.358.9q-.184,0-.369.018a1.928,1.928,0,0,1,.664-.62,1.652,1.652,0,0,1,1.423-.1,1.948,1.948,0,0,1,1.07,1.07,2.345,2.345,0,0,1,.191.957A4.12,4.12,0,0,0,12.845,116.266Z" transform="translate(0 -106.439)"/>
      </g>
    </g>
    <g id="Group_5304" data-name="Group 5304" transform="translate(4.794 79.58)">
      <g id="Group_5303" data-name="Group 5303">
        <path id="Path_53" data-name="Path 53" class="cls-1" d="M116.391,307.034a.344.344,0,0,0-.234-.251.3.3,0,0,0-.309.1l-.137.163a3.462,3.462,0,0,1-3.73,1.164.3.3,0,0,0-.317.1.4.4,0,0,0-.079.362,2.574,2.574,0,0,0,2.4,2.029,2.227,2.227,0,0,0,.72-.12A2.931,2.931,0,0,0,116.391,307.034Zm-1.867,2.844a1.655,1.655,0,0,1-1.419-.163,1.955,1.955,0,0,1-.643-.648,4.049,4.049,0,0,0,3.389-1.16A2.1,2.1,0,0,1,114.524,309.878Z" transform="translate(-111.572 -306.773)"/>
      </g>
    </g>
    <g id="Group_5306" data-name="Group 5306" transform="translate(11.028 67.931)">
      <g id="Group_5305" data-name="Group 5305">
        <path id="Path_54" data-name="Path 54" class="cls-1" d="M266.39,70.477a10.843,10.843,0,0,0-6.56-2.545,3.083,3.083,0,0,0-3,2.647l-.175.893a.37.37,0,0,0,.245.437.325.325,0,0,0,.385-.278l.175-.893a2.414,2.414,0,0,1,2.351-2.074,10.248,10.248,0,0,1,6.2,2.405,2.883,2.883,0,0,1,.741,3.273l-.378.913a5.4,5.4,0,0,0-.4,1.843,4.392,4.392,0,0,1-1.288,2.967l-.008.008-2.823,2.9a2.242,2.242,0,0,1-2.442.57l-1.1-.428q-.053-.02-.1-.043a.312.312,0,0,0-.418.207.384.384,0,0,0,.183.475c.043.019.087.038.131.055l1.1.428a2.765,2.765,0,0,0,1,.189,2.906,2.906,0,0,0,2.081-.909l2.82-2.893a5.168,5.168,0,0,0,1.511-3.487,4.589,4.589,0,0,1,.343-1.567l.378-.913A3.679,3.679,0,0,0,266.39,70.477Z" transform="translate(-256.646 -67.931)"/>
      </g>
    </g>
  </g>
</svg>
