<svg id="vk-social-network-logo" xmlns="http://www.w3.org/2000/svg" viewBox="0 0 16.189 9.237">
  <defs>
    <style>
      .cls-1 {
        fill: #b8b8b8;
      }
    </style>
  </defs>
  <path id="Path_57" data-name="Path 57" class="cls-1" d="M16.1,126.09a1.109,1.109,0,0,0-.055-.105,8.39,8.39,0,0,0-1.61-1.863l-.017-.017-.008-.008-.008-.008H14.4q-.539-.514-.683-.691a.649.649,0,0,1-.118-.683,6.365,6.365,0,0,1,.759-1.1q.346-.447.548-.716,1.458-1.939,1.264-2.478l-.05-.084a.493.493,0,0,0-.261-.139,1.327,1.327,0,0,0-.54-.021l-2.428.017a.315.315,0,0,0-.169,0l-.11.025-.042.021-.034.025a.375.375,0,0,0-.093.088.578.578,0,0,0-.084.147,13.763,13.763,0,0,1-.9,1.9q-.312.523-.573.906a4.36,4.36,0,0,1-.438.565,3.058,3.058,0,0,1-.32.291q-.143.11-.219.093l-.143-.034a.561.561,0,0,1-.19-.207.925.925,0,0,1-.1-.329q-.025-.2-.03-.341t0-.4q.009-.261.008-.354,0-.32.013-.7t.021-.594q.009-.219.008-.464a1.948,1.948,0,0,0-.03-.384,1.312,1.312,0,0,0-.088-.27.454.454,0,0,0-.173-.2.974.974,0,0,0-.282-.114,5.61,5.61,0,0,0-1.138-.11,5.53,5.53,0,0,0-2.015.2,1.135,1.135,0,0,0-.32.253q-.152.186-.042.2a1.033,1.033,0,0,1,.716.362l.051.1a1.612,1.612,0,0,1,.118.388,3.912,3.912,0,0,1,.076.615,6.561,6.561,0,0,1,0,1.054q-.042.438-.08.683a1.367,1.367,0,0,1-.114.4,1.672,1.672,0,0,1-.1.185.145.145,0,0,1-.042.042.632.632,0,0,1-.228.042.534.534,0,0,1-.287-.118,2.022,2.022,0,0,1-.35-.325,4.338,4.338,0,0,1-.409-.577q-.227-.371-.472-.877l-.135-.245q-.126-.236-.346-.687t-.388-.873a.556.556,0,0,0-.2-.27l-.042-.025a.577.577,0,0,0-.135-.072.9.9,0,0,0-.194-.055l-2.31.017a.587.587,0,0,0-.48.16l-.034.051a.273.273,0,0,0-.025.135.671.671,0,0,0,.051.228q.506,1.189,1.1,2.293t1.033,1.778q.438.674.893,1.273t.6.767q.148.169.232.253l.211.2a5,5,0,0,0,.594.485,10.136,10.136,0,0,0,.868.557,4.71,4.71,0,0,0,1.108.447,3.833,3.833,0,0,0,1.231.139h.969a.671.671,0,0,0,.447-.186l.034-.042a.559.559,0,0,0,.063-.156.856.856,0,0,0,.03-.232,2.778,2.778,0,0,1,.055-.653,1.717,1.717,0,0,1,.143-.438,1.077,1.077,0,0,1,.181-.249.732.732,0,0,1,.144-.122.55.55,0,0,1,.067-.029.535.535,0,0,1,.476.131,2.8,2.8,0,0,1,.514.489q.24.291.577.653a3.967,3.967,0,0,0,.59.54l.169.1a2.052,2.052,0,0,0,.439.185.945.945,0,0,0,.472.042l2.158-.034a.978.978,0,0,0,.5-.105.418.418,0,0,0,.211-.232.653.653,0,0,0,0-.287A1.058,1.058,0,0,0,16.1,126.09Z" transform="translate(0 -117.748)"/>
</svg>
